
<svg width="147px" height="38px" viewBox="0 0 147 38" version="1.1" xmlns="http://www.w3.org/2000/svg" xmlns:xlink="http://www.w3.org/1999/xlink">
    <defs>
        <linearGradient x1="8.62748718%" y1="12.9687699%" x2="76.2698304%" y2="78.1004268%" id="linearGradient-1">
            <stop stop-color="#FFDA5F" offset="0%"></stop>
            <stop stop-color="#FF8833" offset="100%"></stop>
        </linearGradient>
    </defs>
    <g id="Brand-Guideline-Reference-Sheet" stroke="none" stroke-width="1" fill="none" fill-rule="evenodd">
        <g id="A4" transform="translate(-77.000000, -175.000000)">
            <g id="Primarylogo" transform="translate(55.000000, 142.000000)">
                <g id="helio-logo-1" transform="translate(20.000000, 21.000000)">
                    <path d="M146.282297,29.3652382 C145.468023,29.7783029 144.566101,29.9899802 143.654725,29.9778528 C141.891614,29.9547006 139.88193,29.6831216 138.807626,28.7037466 C136.626649,26.7130245 133.146979,23.194257 133.146979,23.194257 C133.146979,23.194257 132.605099,22.6687387 132.297791,21.3068011 C132.295973,20.9536381 132.293791,20.6115 132.291972,20.2587045 C132.336341,20.0220375 132.359616,19.7780206 132.359616,19.5284913 C132.359616,17.3091871 130.527044,15.5198525 128.305699,15.6223837 C126.334565,15.7135225 124.712198,17.3525516 124.622369,19.3447436 C124.520539,21.5890375 126.291287,23.4408463 128.487538,23.4408463 C128.985413,23.4408463 129.463649,23.3445625 129.901518,23.1714723 C130.756888,23.110468 131.85374,23.814589 132.686563,24.6359411 C134.11909,26.0511655 136.348436,28.4839844 137.201624,29.4210974 C137.481656,29.728691 137.719865,30.0715641 137.903159,30.4464094 C138.182827,31.0182321 138.571599,31.9630625 138.853449,33.2401087 C139.152392,34.5961664 138.974554,36.0257231 138.336663,37.2564649 C137.021603,39.7914475 148.722576,28.128249 146.282297,29.3652382 Z" id="Fill-128" fill="url(#linearGradient-1)" transform="translate(135.618187, 26.618187) rotate(-245.000000) translate(-135.618187, -26.618187) "></path>
                    <path d="M9.703125,46.203125 C9.703125,47.2578178 9.33398807,48.1542932 8.59570312,48.8925781 C7.85741818,49.6308631 6.96094277,50 5.90625,50 C4.85155723,50 3.95508182,49.6308631 3.21679688,48.8925781 C2.47851193,48.1542932 2.109375,47.2578178 2.109375,46.203125 L2.109375,16.3027344 C2.109375,15.2480416 2.47851193,14.3515662 3.21679688,13.6132812 C3.95508182,12.8749963 4.85155723,12.5058594 5.90625,12.5058594 C6.96094277,12.5058594 7.85741818,12.8749963 8.59570312,13.6132812 C9.33398807,14.3515662 9.703125,15.2480416 9.703125,16.3027344 L9.703125,21.4707031 C12.0761837,20.0820243 14.6425643,19.3876953 17.4023438,19.3876953 C21.6386931,19.3876953 25.2509616,20.881821 28.2392578,23.8701172 C31.227554,26.8584134 32.7216797,30.4706819 32.7216797,34.7070312 L32.7216797,46.203125 C32.7216797,47.2578178 32.3437538,48.1542932 31.5878906,48.8925781 C30.8496057,49.6308631 29.9619192,50 28.9248047,50 C27.8701119,50 26.9736365,49.6308631 26.2353516,48.8925781 C25.4970666,48.1542932 25.1279297,47.2578178 25.1279297,46.203125 L25.1279297,34.7070312 C25.1279297,32.5800675 24.3720779,30.7607497 22.8603516,29.2490234 C21.3486253,27.7372971 19.5293075,26.9814453 17.4023438,26.9814453 C15.27538,26.9814453 13.4648512,27.7372971 11.9707031,29.2490234 C10.4589768,30.7607497 9.703125,32.5800675 9.703125,34.7070312 L9.703125,46.203125 Z M56.9398614,41.0087891 C57.7660374,40.340817 58.7240356,40.0419918 59.8138848,40.1123047 C60.9388905,40.1826175 61.8265769,40.6132773 62.4769708,41.4042969 C63.1449429,42.1953165 63.3998231,43.0830029 63.2416192,44.0673828 C63.1009935,44.9990281 62.6175999,45.8076138 61.7914239,46.4931641 C60.4379015,47.6181697 58.9086199,48.4882782 57.2035333,49.1035156 C55.5160248,49.7011749 53.7933858,50 52.0355645,50 C47.8167934,50 44.2133138,48.5058743 41.2250177,45.5175781 C38.2367215,42.5292819 36.7425958,38.9258023 36.7425958,34.7070312 C36.7425958,30.4706819 38.2367215,26.8584134 41.2250177,23.8701172 C44.2133138,20.881821 47.8167934,19.3876953 52.0355645,19.3876953 C56.2719138,19.3876953 59.8841824,20.881821 62.8724786,23.8701172 C65.8607748,26.8584134 67.3549005,30.4706819 67.3549005,34.7070312 C67.3549005,36.6582129 66.0892881,37.6337891 63.5580255,37.6337891 L44.9691583,37.6337891 C45.3383008,39.1103589 46.0589967,40.2968705 47.1312677,41.1933594 C48.4144772,42.2480521 50.0492265,42.7753906 52.0355645,42.7753906 C53.8988551,42.7753906 55.5336044,42.1865293 56.9398614,41.0087891 Z M58.7855645,31.7539062 C57.4320421,28.3085765 55.1820646,26.5859375 52.0355645,26.5859375 C48.5550784,26.5859375 46.1556883,28.3085765 44.8373223,31.7539062 L58.7855645,31.7539062 Z M80.0242541,46.203125 C80.0242541,47.2578178 79.6551171,48.1542932 78.9168322,48.8925781 C78.1785472,49.6308631 77.2820718,50 76.2273791,50 C75.1726863,50 74.2762109,49.6308631 73.5379259,48.8925781 C72.799641,48.1542932 72.4305041,47.2578178 72.4305041,46.203125 L72.4305041,16.3027344 C72.4305041,15.2480416 72.799641,14.3515662 73.5379259,13.6132812 C74.2762109,12.8749963 75.1726863,12.5058594 76.2273791,12.5058594 C77.2820718,12.5058594 78.1785472,12.8749963 78.9168322,13.6132812 C79.6551171,14.3515662 80.0242541,15.2480416 80.0242541,16.3027344 L80.0242541,46.203125 Z M94.011967,46.203125 C94.011967,47.2578178 93.6428301,48.1542932 92.9045452,48.8925781 C92.1662602,49.6308631 91.2697848,50 90.215092,50 C89.1603993,50 88.2639238,49.6308631 87.5256389,48.8925781 C86.787354,48.1542932 86.418217,47.2578178 86.418217,46.203125 L86.418217,25.8212891 C86.418217,24.7841745 86.787354,23.8964881 87.5256389,23.1582031 C88.2639238,22.40234 89.1603993,22.0244141 90.215092,22.0244141 C91.2697848,22.0244141 92.1662602,22.40234 92.9045452,23.1582031 C93.6428301,23.8964881 94.011967,24.7841745 94.011967,25.8212891 L94.011967,46.203125 Z M90.215092,12.5058594 C91.2697848,12.5058594 92.1662602,12.8749963 92.9045452,13.6132812 C93.6428301,14.3515662 94.011967,15.2480416 94.011967,16.3027344 C94.011967,17.3574271 93.6428301,18.2539026 92.9045452,18.9921875 C92.1662602,19.7304724 91.2697848,20.0996094 90.215092,20.0996094 C89.1603993,20.0996094 88.2639238,19.7304724 87.5256389,18.9921875 C86.787354,18.2539026 86.418217,17.3574271 86.418217,16.3027344 C86.418217,15.2480416 86.787354,14.3515662 87.5256389,13.6132812 C88.2639238,12.8749963 89.1603993,12.5058594 90.215092,12.5058594 Z M113.853196,26.9814453 C111.726232,26.9814453 109.915703,27.7372971 108.421555,29.2490234 C106.909829,30.7607497 106.153977,32.5800675 106.153977,34.7070312 C106.153977,36.833995 106.909829,38.6533128 108.421555,40.1650391 C109.915703,41.6591872 111.726232,42.40625 113.853196,42.40625 C115.980159,42.40625 117.799477,41.6591872 119.311203,40.1650391 C120.82293,38.6533128 121.578782,36.833995 121.578782,34.7070312 C121.578782,32.5800675 120.82293,30.7607497 119.311203,29.2490234 C117.799477,27.7372971 115.980159,26.9814453 113.853196,26.9814453 Z M103.042649,23.8701172 C106.030945,20.881821 109.634425,19.3876953 113.853196,19.3876953 C118.089545,19.3876953 121.701813,20.881821 124.69011,23.8701172 C127.678406,26.8584134 129.172532,30.4706819 129.172532,34.7070312 C129.172532,38.9258023 127.678406,42.5292819 124.69011,45.5175781 C121.701813,48.5058743 118.089545,50 113.853196,50 C109.634425,50 106.030945,48.5058743 103.042649,45.5175781 C100.054353,42.5292819 98.5602269,38.9258023 98.5602269,34.7070312 C98.5602269,30.4706819 100.054353,26.8584134 103.042649,23.8701172 Z" id="helio" fill="#FF8833"></path>
                </g>
            </g>
        </g>
    </g>
</svg>